<svg width="82" height="27" viewBox="0 0 82 27" fill="none" xmlns="http://www.w3.org/2000/svg">
<path d="M4.544 23.156H16.784V26H0.656V23.408L12.824 3.752H0.8V0.907999H16.712V3.5L4.544 23.156ZM29.2046 26.252C26.8766 26.252 24.7526 25.712 22.8326 24.632C20.9126 23.528 19.3886 22.004 18.2606 20.06C17.1566 18.092 16.6046 15.884 16.6046 13.436C16.6046 10.988 17.1566 8.792 18.2606 6.848C19.3886 4.88 20.9126 3.356 22.8326 2.276C24.7526 1.172 26.8766 0.619998 29.2046 0.619998C31.5566 0.619998 33.6926 1.172 35.6126 2.276C37.5326 3.356 39.0446 4.868 40.1486 6.812C41.2526 8.756 41.8046 10.964 41.8046 13.436C41.8046 15.908 41.2526 18.116 40.1486 20.06C39.0446 22.004 37.5326 23.528 35.6126 24.632C33.6926 25.712 31.5566 26.252 29.2046 26.252ZM29.2046 23.408C30.9566 23.408 32.5286 23 33.9206 22.184C35.3366 21.368 36.4406 20.204 37.2326 18.692C38.0486 17.18 38.4566 15.428 38.4566 13.436C38.4566 11.42 38.0486 9.668 37.2326 8.18C36.4406 6.668 35.3486 5.504 33.9566 4.688C32.5646 3.872 30.9806 3.464 29.2046 3.464C27.4286 3.464 25.8446 3.872 24.4526 4.688C23.0606 5.504 21.9566 6.668 21.1406 8.18C20.3486 9.668 19.9526 11.42 19.9526 13.436C19.9526 15.428 20.3486 17.18 21.1406 18.692C21.9566 20.204 23.0606 21.368 24.4526 22.184C25.8686 23 27.4526 23.408 29.2046 23.408ZM56.3173 26L45.9853 14.552V26H42.7093V0.907999H45.9853V12.536L56.3533 0.907999H60.4933L49.1173 13.472L60.6013 26H56.3173ZM75.6721 20.42H64.7281L62.7121 26H59.2561L68.3281 1.052H72.1081L81.1441 26H77.6881L75.6721 20.42ZM74.7361 17.756L70.2001 5.084L65.6641 17.756H74.7361Z" fill="black"/>
</svg>
